<!-- GitHub Gold (plain) -->
<svg xmlns="http://www.w3.org/2000/svg" viewBox="0 0 24 24" width="24" height="24">
  <title>GitHub</title>
  <path fill="#e2bf5a" d="M12 .297C5.37.297 0 5.667 0 12.297c0 5.29 3.438 9.773 8.206 11.356.6.11.82-.26.82-.58 0-.29-.01-1.06-.02-2.07-3.34.72-4.04-1.62-4.04-1.62-.55-1.4-1.34-1.77-1.34-1.77-1.09-.75.08-.74.08-.74 1.2.08 1.83 1.23 1.83 1.23 1.07 1.83 2.8 1.3 3.49.99.11-.78.42-1.3.76-1.6-2.66-.3-5.47-1.33-5.47-5.93 0-1.31.47-2.38 1.24-3.22-.12-.31-.54-1.53.12-3.18 0 0 1.01-.32 3.3 1.23.96-.27 1.99-.4 3.01-.4s2.05.14 3.01.4c2.29-1.55 3.3-1.23 3.3-1.23.66 1.65.24 2.87.12 3.18.77.84 1.24 1.91 1.24 3.22 0 4.61-2.81 5.63-5.49 5.93.44.38.82 1.11.82 2.24 0 1.62-.01 2.93-.01 3.32 0 .32.21.69.83.57C20.56 22.07 24 17.59 24 12.297 24 5.667 18.63.297 12 .297z"/>
</svg>
